# xmcd
#
# Track frame offsets:
# 150
# 15596
# 32138
# 48909
# 63362
# 77426
# 93343
# 109049
# 122973
# 142719
# 157677
# 173596
# 188259
# 202727
# 221970
#
# Disc length: 3189 seconds
#
#
# Revision: 3
# Processed by: cddbd v1.5.2PL0 Copyright (c) Steve Scherf et al.
# Submitted via: FreeRIP 2.945 
#
DISCID=af0c730f
DTITLE=Various Artist - A Decade Of Country Hits CD 1
DYEAR=1999
DGENRE=Country
TTITLE0=Billy Ray Cyrus - Achy Breaky Heart
TTITLE1=Troy Cassar Daley - Bar Room Roses
TTITLE2=Tania Kernaghan - Leave Like A Man
TTITLE3=Randy Travis - Is It Still Over
TTITLE4=Ricky Van Skelton - I'll Leave This World Loving You
TTITLE5=John Williamson - I'll Be Gone
TTITLE6=Kathy Mattea - Walking Away A Winner
TTITLE7=Mark Chesnutt - Brother Jukebox
TTITLE8=Keith Urban - Got It Bad
TTITLE9=Dwight Yoakam - Ain't That Lonely Vet
TTITLE10=Gina Jeffreys - Two Stars Fell
TTITLE11=Willie Nelson - Farther Down The Line
TTITLE12=Mavericks - O What A Thrill
TTITLE13=Reba McEntire - The Night The Lights Went Out In Georgia
TTITLE14=Joe Diffie - Prop Me Up Beside The Jukebox If I Die
EXTD=cd
EXTT0=
EXTT1=
EXTT2=
EXTT3=
EXTT4=
EXTT5=
EXTT6=
EXTT7=
EXTT8=
EXTT9=
EXTT10=
EXTT11=
EXTT12=
EXTT13=
EXTT14=
PLAYORDER=
